<?xml version="1.0" encoding="UTF-8" standalone="no"?> <svg xmlns="http://www.w3.org/2000/svg" viewBox="0 0 64 64"><g id="banana"><path d="M57.29,17.23A18.46,18.46,0,0,0,55,14.68V10a1,1,0,0,0-1-1H51a1,1,0,0,0-1,1v7.41C47,24,39.67,28.87,31,29.86c-10.59,1.2-20.26-3.6-23.54-11.7l-.12-.22-.07-.08A1.42,1.42,0,0,0,7,17.48a1.51,1.51,0,0,0-.26-.18,1.57,1.57,0,0,0-.4-.23A2,2,0,0,0,5.94,17l-.24-.06-.36-.08-.15.09H5l-.1,0L4.63,17l-.37.17L4,17.32a2,2,0,0,0-.57.58,1.14,1.14,0,0,0-.09.16,1.68,1.68,0,0,0-.15.34l-.08.27A19.46,19.46,0,0,0,3,23.55l0,.25C4.28,34.9,15.43,43.18,28.75,43.18c.53,0,1.07,0,1.61,0a32.77,32.77,0,0,0,10-2C31.84,47,21.38,47.55,14.67,42.3l-.17-.12-.15-.06A1.63,1.63,0,0,0,14,42a1.8,1.8,0,0,0-.45-.06,2.2,2.2,0,0,0-.36,0,1.92,1.92,0,0,0-.4.1,1.19,1.19,0,0,0-.32.11l-.17.1a2.08,2.08,0,0,0-.26.18,1.57,1.57,0,0,0-.19.15l-.13.12a1.89,1.89,0,0,0-.3.4l-.1.17a2.12,2.12,0,0,0-.22.73.92.92,0,0,0,0,.2,2.06,2.06,0,0,0,0,.44l.07.26a18.65,18.65,0,0,0,2.28,4.3l.16.22c3.9,5.31,10.3,8,17.26,8a29.94,29.94,0,0,0,16.08-4.89A30.72,30.72,0,0,0,60,35.72h0C62,29,61,22.26,57.29,17.23ZM53,11v2.23h0a1.93,1.93,0,0,0-.47-.05h-.34l-.17,0V11ZM30.26,41.15C17.29,41.78,6.2,34.07,5,23.56l0-.22a17.24,17.24,0,0,1,.12-4.19l0-.1,0-.05.07,0h0l.11,0h.12l.16,0h0l.07.1c3.65,8.83,14.13,14.08,25.55,12.78,8.72-1,16.19-5.64,19.85-12.14C51.82,25.09,50,30.92,46,35.79A29.07,29.07,0,0,1,30.26,41.15Zm27.82-6h0A28.63,28.63,0,0,1,45.85,50.87c-10.91,7-24.38,5.85-30.64-2.66l-.15-.2a16.88,16.88,0,0,1-2-3.68l0-.15v0l.07-.11h0l.12-.1.08,0,.06,0h0l.09,0c7.57,5.85,19.29,5.18,28.54-1.63,8.88-6.53,13-16.91,10.39-25.65.14-.39.27-.8.39-1.21a16.13,16.13,0,0,1,2.82,3C59,22.94,59.89,29,58.08,35.15Z"/></g></svg>