<?xml version="1.0" encoding="utf-8"?>
<!-- Generator: Adobe Illustrator 23.0.3, SVG Export Plug-In . SVG Version: 6.00 Build 0)  -->
<svg version="1.1" id="Icons" xmlns="http://www.w3.org/2000/svg" xmlns:xlink="http://www.w3.org/1999/xlink" x="0px" y="0px"
	 viewBox="0 0 32 32" style="enable-background:new 0 0 32 32;" xml:space="preserve">
<style type="text/css">
	.st0{fill:none;stroke:#000000;stroke-width:2;stroke-miterlimit:10;}
	.st1{fill:none;stroke:#000000;stroke-width:2;stroke-linejoin:round;stroke-miterlimit:10;}
	.st2{fill:none;stroke:#000000;stroke-width:2;stroke-linecap:round;stroke-linejoin:round;stroke-miterlimit:10;}
	.st3{fill:none;stroke:#000000;stroke-width:2;stroke-linecap:round;stroke-miterlimit:10;}
	.st4{fill:none;stroke:#000000;stroke-width:2;stroke-linejoin:round;stroke-miterlimit:10;stroke-dasharray:3;}
</style>
<path class="st1" d="M24.5,9h-17C6.1,9,5,7.9,5,6.5v0C5,5.1,6.1,4,7.5,4h17C25.9,4,27,5.1,27,6.5v0C27,7.9,25.9,9,24.5,9z"/>
<path class="st1" d="M6.8,9L4,13l2.2,1.1c1.2,0.6,2.6,0.6,3.9,0l0.3-0.1c1.2-0.6,2.6-0.6,3.9,0l0.3,0.1c1.2,0.6,2.6,0.6,3.9,0
	l0.3-0.1c1.2-0.6,2.6-0.6,3.9,0l0,0c1.4,0.7,3,0.6,4.3-0.3L28,13l-2.8-4"/>
<path class="st1" d="M26.1,14.1c1.3,5,0.6,10.4-2.1,14.9l0,0H8l0,0c-2.8-4.6-3.5-10.1-2.1-15.1"/>
<rect x="10" y="18" class="st1" width="12" height="6"/>
</svg>
