<?xml version="1.0" encoding="UTF-8" standalone="no"?> <svg xmlns="http://www.w3.org/2000/svg" width="50.262" height="35.934" viewBox="0 0 50.262 35.934">
  <g id="Group_1278" data-name="Group 1278" transform="translate(-664.541 -1276.003)">
    <g id="Group_1272" data-name="Group 1272">
      <g id="Group_1186" data-name="Group 1186">
        <g id="Group_1185" data-name="Group 1185">
          <g id="Group_1184" data-name="Group 1184">
            <g id="Group_1183" data-name="Group 1183">
              <g id="Group_1182" data-name="Group 1182">
                <path id="Path_194" data-name="Path 194" d="M682.282,1289.53a1.98,1.98,0,0,1,.344.018l.691.072a4.3,4.3,0,0,1,.656.2,5.005,5.005,0,0,1,1.215.607,12.745,12.745,0,0,1,1.027.83l.125.137a17.487,17.487,0,0,1,2.557-2.968,11.709,11.709,0,0,1,2.08-1.511c-.037-.039-.072-.074-.107-.113-.473-.5-.959-1.019-1.455-1.545l-.389-.4-.375-.305a4.579,4.579,0,0,0-.832-.563,9.332,9.332,0,0,0-1.9-.837c-.205-.063-.41-.12-.617-.18a15.791,15.791,0,0,0-1.508,2.666c-.268.627-.531,1.325-.8,2Q682.644,1288.571,682.282,1289.53Z"/>
              </g>
            </g>
          </g>
        </g>
      </g>
      <g id="Group_1191" data-name="Group 1191">
        <g id="Group_1190" data-name="Group 1190">
          <g id="Group_1189" data-name="Group 1189">
            <g id="Group_1188" data-name="Group 1188">
              <g id="Group_1187" data-name="Group 1187">
                <path id="Path_195" data-name="Path 195" d="M681.854,1298.7l.088.13a32.87,32.87,0,0,0,1.877-3.259c.557-1.021,1.135-2.049,1.762-3.041l-.3-.316c-.277-.239-.549-.5-.838-.707a3.9,3.9,0,0,0-.914-.477,3.373,3.373,0,0,0-.473-.159l-.475-.081a1.786,1.786,0,0,0-.533-.036c-.086,0-.17,0-.256,0l-.006.016-.539,1.082c-.213.352-.477.686-.719,1.025-.27.313-.58.581-.871.873a9.208,9.208,0,0,1-.945.73c-.32.232-.637.474-.965.665l-.215.133a7.536,7.536,0,0,1,1.762.815,8.429,8.429,0,0,1,1,.762,12,12,0,0,1,.846.893A8.312,8.312,0,0,1,681.854,1298.7Z"/>
              </g>
            </g>
          </g>
        </g>
      </g>
      <g id="Group_1196" data-name="Group 1196">
        <g id="Group_1195" data-name="Group 1195">
          <g id="Group_1194" data-name="Group 1194">
            <g id="Group_1193" data-name="Group 1193">
              <g id="Group_1192" data-name="Group 1192">
                <path id="Path_196" data-name="Path 196" d="M677.544,1289.11a16.354,16.354,0,0,0,1.846.425,6.738,6.738,0,0,0,1,.1c.154-.005.316.012.469,0,.053-.13.1-.263.154-.4.545-1.406,1.115-2.75,1.713-4.072a14.173,14.173,0,0,1,1.49-2.463c-.1-.021-.2-.049-.291-.068a35.816,35.816,0,0,0-3.715-.522c-.6-.053-1.137-.093-1.615-.125-2.33,3.138-1.9,4.987-2.66,6.606C676.407,1288.75,676.946,1288.93,677.544,1289.11Z"/>
              </g>
            </g>
          </g>
        </g>
      </g>
      <g id="Group_1201" data-name="Group 1201">
        <g id="Group_1200" data-name="Group 1200">
          <g id="Group_1199" data-name="Group 1199">
            <g id="Group_1198" data-name="Group 1198">
              <g id="Group_1197" data-name="Group 1197">
                <path id="Path_197" data-name="Path 197" d="M694.665,1283.8a11.2,11.2,0,0,0,1.352-2.285c-.178-.21-.357-.412-.535-.585a8.946,8.946,0,0,0-1.816-1.436c-.332-.2-.684-.369-1.018-.561l-1.045-.471c-.357-.132-.707-.263-1.051-.388l-.1-.034c-.676.465-1.383,1.021-2.125,1.64a21.453,21.453,0,0,0-2.17,2.2,10.418,10.418,0,0,1,2.342.949,5.688,5.688,0,0,1,1,.709l.475.41.381.4c.523.561.967,1.132,1.416,1.671.074.093.144.181.217.271.078-.049.162-.1.234-.145A11.442,11.442,0,0,0,694.665,1283.8Z"/>
              </g>
            </g>
          </g>
        </g>
      </g>
      <g id="Group_1206" data-name="Group 1206">
        <g id="Group_1205" data-name="Group 1205">
          <g id="Group_1204" data-name="Group 1204">
            <g id="Group_1203" data-name="Group 1203">
              <g id="Group_1202" data-name="Group 1202">
                <path id="Path_198" data-name="Path 198" d="M673.45,1303.79c.453.49.918.92,1.369,1.377.021.019.039.039.059.057.188-.251.387-.495.6-.732a19.661,19.661,0,0,1,3.041-2.689c.553-.413,1.117-.824,1.658-1.25.273-.215.541-.43.771-.645a1.919,1.919,0,0,0,.154-.133l-.266-.35c-.213-.291-.447-.559-.678-.829a9.468,9.468,0,0,0-.742-.756,7.1,7.1,0,0,0-.844-.614,7.338,7.338,0,0,0-1.893-.863c-.2-.051-.414-.107-.621-.162-.074.047-.158.1-.228.145a18,18,0,0,0-1.733,1.256c-.266.234-.541.453-.793.691s-.49.492-.734.734a16.227,16.227,0,0,0-1.875,2.478,9.364,9.364,0,0,1,1.293.856C672.54,1302.86,672.983,1303.32,673.45,1303.79Z"/>
              </g>
            </g>
          </g>
        </g>
      </g>
      <g id="Group_1211" data-name="Group 1211">
        <g id="Group_1210" data-name="Group 1210">
          <g id="Group_1209" data-name="Group 1209">
            <g id="Group_1208" data-name="Group 1208">
              <g id="Group_1207" data-name="Group 1207">
                <path id="Path_199" data-name="Path 199" d="M691.729,1287.7a13.385,13.385,0,0,0-2.025,1.584,18.57,18.57,0,0,0-2.482,3.095q.31.391.617.778c.25.319.473.647.7.972l.3.443.359.443q.357.444.7.87c.15.142.295.276.44.414a19.979,19.979,0,0,0,.971-1.832,16.755,16.755,0,0,1,3.6-4.1,9.34,9.34,0,0,1-1.254-.877A21.621,21.621,0,0,1,691.729,1287.7Z"/>
              </g>
            </g>
          </g>
        </g>
      </g>
      <g id="Group_1216" data-name="Group 1216">
        <g id="Group_1215" data-name="Group 1215">
          <g id="Group_1214" data-name="Group 1214">
            <g id="Group_1213" data-name="Group 1213">
              <g id="Group_1212" data-name="Group 1212">
                <path id="Path_200" data-name="Path 200" d="M689.06,1296.6c-.258-.261-.5-.541-.756-.821l-.385-.423-.387-.49c-.236-.3-.477-.609-.717-.92l-.328-.4c-.516.861-1.008,1.755-1.486,2.658a26.046,26.046,0,0,1-2.332,3.825c.285.5.551,1.012.8,1.457.152.293.316.561.471.818a6.173,6.173,0,0,0,.467.734,6.863,6.863,0,0,0,.59.762,46.831,46.831,0,0,0,4.809-6.612C689.561,1297,689.315,1296.81,689.06,1296.6Z"/>
              </g>
            </g>
          </g>
        </g>
      </g>
      <g id="Group_1221" data-name="Group 1221">
        <g id="Group_1220" data-name="Group 1220">
          <g id="Group_1219" data-name="Group 1219">
            <g id="Group_1218" data-name="Group 1218">
              <g id="Group_1217" data-name="Group 1217">
                <path id="Path_201" data-name="Path 201" d="M697.144,1277.66a9.32,9.32,0,0,1-.066,1.5,11.978,11.978,0,0,1-.219,1.293c.445.517.807,1.023,1.2,1.547.508.668.949,1.352,1.393,2.006.027.041.051.08.078.117a5.627,5.627,0,0,0-2.389-6.555C697.142,1277.59,697.144,1277.62,697.144,1277.66Z"/>
              </g>
            </g>
          </g>
        </g>
      </g>
      <g id="Group_1226" data-name="Group 1226">
        <g id="Group_1225" data-name="Group 1225">
          <g id="Group_1224" data-name="Group 1224">
            <g id="Group_1223" data-name="Group 1223">
              <g id="Group_1222" data-name="Group 1222">
                <path id="Path_202" data-name="Path 202" d="M666.917,1300.2a11.947,11.947,0,0,1,1.611.378,12.331,12.331,0,0,1,1.236.458,14.981,14.981,0,0,1,1.936-2.8c.252-.27.506-.539.762-.813s.553-.511.83-.771c.365-.318.764-.629,1.166-.922a37.843,37.843,0,0,1-3.676-1.322c-.477-.193-.9-.38-1.3-.556a14.825,14.825,0,0,0-4.611,6.154A14.189,14.189,0,0,1,666.917,1300.2Z"/>
              </g>
            </g>
          </g>
        </g>
      </g>
      <g id="Group_1231" data-name="Group 1231">
        <g id="Group_1230" data-name="Group 1230">
          <g id="Group_1229" data-name="Group 1229">
            <g id="Group_1228" data-name="Group 1228">
              <g id="Group_1227" data-name="Group 1227">
                <path id="Path_203" data-name="Path 203" d="M696.556,1280.11c.113-.359.2-.7.266-1a12.363,12.363,0,0,0,.264-1.586,11.412,11.412,0,0,0-3.391-1.4c-.258.127-.555.281-.9.467s-.731.412-1.139.662c.117.035.23.069.352.1.381.146.768.3,1.16.444.381.186.775.355,1.15.576a10.164,10.164,0,0,1,2.119,1.613C696.481,1280.03,696.517,1280.07,696.556,1280.11Z"/>
              </g>
            </g>
          </g>
        </g>
      </g>
      <g id="Group_1236" data-name="Group 1236">
        <g id="Group_1235" data-name="Group 1235">
          <g id="Group_1234" data-name="Group 1234">
            <g id="Group_1233" data-name="Group 1233">
              <g id="Group_1232" data-name="Group 1232">
                <path id="Path_204" data-name="Path 204" d="M683.808,1303.53a11.115,11.115,0,0,1-1.188-1.51c-.25-.373-.521-.775-.787-1.173,0,0,0,0-.006.005-.3.264-.6.484-.889.7-.584.431-1.162.822-1.723,1.215a21.952,21.952,0,0,0-3,2.414c-.228.229-.44.465-.639.7.205.2.41.392.615.574.473.378.885.813,1.334,1.138.172.131.336.262.5.392a8.3,8.3,0,0,1,2.66-1.008,8.578,8.578,0,0,0,3.9-2.722A5.688,5.688,0,0,1,683.808,1303.53Z"/>
              </g>
            </g>
          </g>
        </g>
      </g>
      <g id="Group_1241" data-name="Group 1241">
        <g id="Group_1240" data-name="Group 1240">
          <g id="Group_1239" data-name="Group 1239">
            <g id="Group_1238" data-name="Group 1238">
              <g id="Group_1237" data-name="Group 1237">
                <path id="Path_205" data-name="Path 205" d="M676.944,1308.41a16.511,16.511,0,0,1-1.508-1.045c-.193-.152-.389-.311-.586-.47a8.454,8.454,0,0,0-.565,1.044,10.182,10.182,0,0,0-.508,1.426c-.09.473-.2.926-.244,1.357-.01.219-.027.434-.041.641a5.013,5.013,0,0,0,1.947-.749,6.474,6.474,0,0,1,1.752-2.056C677.108,1308.51,677.028,1308.46,676.944,1308.41Z"/>
              </g>
            </g>
          </g>
        </g>
      </g>
      <g id="Group_1246" data-name="Group 1246">
        <g id="Group_1245" data-name="Group 1245">
          <g id="Group_1244" data-name="Group 1244">
            <g id="Group_1243" data-name="Group 1243">
              <g id="Group_1242" data-name="Group 1242">
                <path id="Path_206" data-name="Path 206" d="M687.706,1276.5c.637.054,1.324.141,2.049.275l1.111.242.232.068c.59-.3,1.127-.533,1.588-.73.27-.111.512-.2.732-.287a21.2,21.2,0,0,0-6.086.408A2.948,2.948,0,0,1,687.706,1276.5Z"/>
              </g>
            </g>
          </g>
        </g>
      </g>
      <g id="Group_1251" data-name="Group 1251">
        <g id="Group_1250" data-name="Group 1250">
          <g id="Group_1249" data-name="Group 1249">
            <g id="Group_1248" data-name="Group 1248">
              <g id="Group_1247" data-name="Group 1247">
                <path id="Path_207" data-name="Path 207" d="M673.036,1310.7c0-.457.063-.946.107-1.462a9.577,9.577,0,0,1,.428-1.582,8.585,8.585,0,0,1,.607-1.324c-.082-.071-.164-.139-.244-.211-.477-.461-1-.92-1.451-1.4s-.922-.983-1.334-1.377c-.336-.273-.678-.533-1.033-.773a11.818,11.818,0,0,0-.984,2.991c-.037.271-.074.538-.111.8s-.012.521-.027.771a7.875,7.875,0,0,0,.076,1.429,10.572,10.572,0,0,0,.33,1.518,5.668,5.668,0,0,0,3.664,1.328C673.056,1311.18,673.048,1310.95,673.036,1310.7Z"/>
              </g>
            </g>
          </g>
        </g>
      </g>
      <g id="Group_1256" data-name="Group 1256">
        <g id="Group_1255" data-name="Group 1255">
          <g id="Group_1254" data-name="Group 1254">
            <g id="Group_1253" data-name="Group 1253">
              <g id="Group_1252" data-name="Group 1252">
                <path id="Path_208" data-name="Path 208" d="M698.487,1284.68c-.473-.617-.961-1.254-1.459-1.9-.2-.258-.408-.528-.619-.794a9.959,9.959,0,0,1-1.117,2.252,11.063,11.063,0,0,1-2.482,2.709l-.19.132c.549.679,1.07,1.31,1.565,1.845a13.27,13.27,0,0,0,1.059,1.042c.021.019.039.03.061.048a18.283,18.283,0,0,1,1.668-1.358,8.284,8.284,0,0,0,2.1-3.188C698.884,1285.21,698.688,1284.95,698.487,1284.68Z"/>
              </g>
            </g>
          </g>
        </g>
      </g>
      <g id="Group_1261" data-name="Group 1261">
        <g id="Group_1260" data-name="Group 1260">
          <g id="Group_1259" data-name="Group 1259">
            <g id="Group_1258" data-name="Group 1258">
              <g id="Group_1257" data-name="Group 1257">
                <path id="Path_209" data-name="Path 209" d="M668.579,1308.65a8.16,8.16,0,0,1-.231-1.5,8,8,0,0,1-.037-.826q.027-.423.057-.865a11.478,11.478,0,0,1,.9-3.4c-.361-.2-.727-.384-1.086-.543-.5-.219-.994-.407-1.453-.572-.76-.26-1.426-.452-1.953-.592a6.117,6.117,0,0,0,.945,5.3,16.029,16.029,0,0,0,3.152,4C668.767,1309.34,668.667,1309.01,668.579,1308.65Z"/>
              </g>
            </g>
          </g>
        </g>
      </g>
      <g id="Group_1266" data-name="Group 1266">
        <g id="Group_1265" data-name="Group 1265">
          <g id="Group_1264" data-name="Group 1264">
            <g id="Group_1263" data-name="Group 1263">
              <g id="Group_1262" data-name="Group 1262">
                <path id="Path_210" data-name="Path 210" d="M680.22,1281.34a20.635,20.635,0,0,1,3.9.126c.309.04.625.095.943.155a0,0,0,0,0,0,0,19.121,19.121,0,0,1,2.779-2.536,21.839,21.839,0,0,1,1.912-1.263l-.229-.073c-.68-.182-1.326-.355-1.934-.488-.691-.148-1.313-.266-1.861-.359a13.374,13.374,0,0,0-6.025,3.727c-.252.283-.479.551-.691.814C679.386,1281.4,679.78,1281.36,680.22,1281.34Z"/>
              </g>
            </g>
          </g>
        </g>
      </g>
      <g id="Group_1271" data-name="Group 1271">
        <g id="Group_1270" data-name="Group 1270">
          <g id="Group_1269" data-name="Group 1269">
            <g id="Group_1268" data-name="Group 1268">
              <g id="Group_1267" data-name="Group 1267">
                <path id="Path_211" data-name="Path 211" d="M671.022,1293.68c.563.136,1.168.282,1.8.456s1.313.311,2,.475l.963.221c.412-.264.816-.52,1.234-.788a10.633,10.633,0,0,0,.9-.632,9.112,9.112,0,0,0,.85-.668,5.951,5.951,0,0,0,1.588-2.01l-.063-.008a7.673,7.673,0,0,1-1.115-.221,11.525,11.525,0,0,1-1.9-.68,17.5,17.5,0,0,1-1.594-.807,5.563,5.563,0,0,1-1.926,1.739A32.827,32.827,0,0,0,670,1293.42C670.319,1293.5,670.657,1293.59,671.022,1293.68Z"/>
              </g>
            </g>
          </g>
        </g>
      </g>
    </g>
    <g id="Group_1277" data-name="Group 1277">
      <g id="Group_1276" data-name="Group 1276">
        <g id="Group_1275" data-name="Group 1275">
          <g id="Group_1274" data-name="Group 1274">
            <g id="Group_1273" data-name="Group 1273">
              <path id="Path_212" data-name="Path 212" d="M714.032,1286.63s-4.685-7.141-11.816-2.94c0,0-1.957,1.054-4.055,5.737,0,0-1.467,2.938-4.334,3.357s-4.336,6.082-4.336,6.082-4.719,9.176,1.154,12.269,13.057-3.722,13.529-4.405,6.814-4.875,7.445-9.279.943-6.188,1.992-7.289S715.458,1288.28,714.032,1286.63Zm-20.922,22.2c-3.865-1.191-2.1-3.512-.629-8.23s4.719-5.506,5.977-5.455,2.213,1.521,2.213,1.521c.8,1.311,1.434,1.836,1.406,5.32C702.044,1306.13,696.976,1310.02,693.11,1308.83Zm16.543-17.12c-.551,3.645-1.285,5.432-2.438,7-2.414,3.829-3.461,2.359-3.461,2.1a33.179,33.179,0,0,0-1.94-4.736c-.734-1.381-1.523-6.077.994-8.74a4.112,4.112,0,0,1,4.852-1.193S710.382,1286.9,709.653,1291.71Z"/>
            </g>
          </g>
        </g>
      </g>
    </g>
  </g>
</svg>
